<svg width="44" height="44" viewBox="0 0 44 44" fill="none" xmlns="http://www.w3.org/2000/svg">
<g clip-path="url(#clip0_2202_29)">
<path d="M0 8C0 3.58172 3.58172 0 8 0H36C40.4183 0 44 3.58172 44 8V36C44 40.4183 40.4183 44 36 44H8C3.58172 44 0 40.4183 0 36V8Z" fill="black"/>
<path fill-rule="evenodd" clip-rule="evenodd" d="M25.6067 23.9196V23.894C25.6067 23.2384 26.1448 22.7004 26.8003 22.7004H29.3281C28.7558 22.4972 28.1996 22.2362 27.7084 21.8864C26.6124 21.1059 25.8926 19.9216 25.8926 18.1972C25.8926 17.9207 25.9116 17.6512 25.9492 17.3897H23.9518L23.8032 21.3033L24.0272 28.1667V28.1819C24.0272 28.8374 23.4892 29.3754 22.8337 29.3754H20.0159C19.3604 29.3754 18.8223 28.8374 18.8223 28.1819V28.1667L19.0464 21.3033L18.8977 17.3897H15.973C15.9631 17.3897 15.9532 17.3896 15.9433 17.3893C15.9334 17.3896 15.9235 17.3897 15.9135 17.3897H12.9888L12.8402 21.3033L13.0642 28.1667V28.1819C13.0642 28.8374 12.5262 29.3754 11.8706 29.3754H9.05288C8.39736 29.3754 7.85932 28.8374 7.85932 28.1819V28.1667L8.08335 21.3033L7.93473 17.3897H5.01C4.35448 17.3897 3.81644 16.8517 3.81644 16.1961V14.4197C3.81644 13.7642 4.35448 13.2262 5.01 13.2262H15.9135C15.9235 13.2262 15.9334 13.2263 15.9433 13.2265C15.9532 13.2263 15.9631 13.2262 15.973 13.2262H26.8765C27.4176 13.2262 27.8786 13.5927 28.0231 14.0893C29.1903 13.3028 30.7473 12.9199 32.5583 12.9199C34.3152 12.9199 35.9213 13.2537 37.1743 14.0819C38.4604 14.932 39.2807 16.2419 39.5406 17.9781L39.5415 17.9842C39.6378 18.6589 39.1331 19.309 38.3981 19.309H35.6824C35.5955 19.309 35.51 19.3003 35.4271 19.2834C36.376 19.5163 37.3651 19.8532 38.1773 20.4309C39.2756 21.212 40 22.3968 40 24.1186C40 25.8971 39.2995 27.3465 37.9975 28.3222C36.7323 29.2703 34.9938 29.7021 33.0075 29.7021C31.0372 29.7021 29.2514 29.2932 27.9087 28.3385C26.5295 27.3578 25.7143 25.868 25.6081 23.9451L25.6067 23.9196ZM17.077 14.1543H26.8765C27.0195 14.1543 27.142 14.2768 27.142 14.4197L27.142 14.8412V16.1961C27.142 16.214 27.1401 16.2316 27.1364 16.2486C27.111 16.3678 27.0016 16.4616 26.8765 16.4616H26.1728L23.0583 16.4616L22.8745 21.3008L23.0991 28.1819C23.0991 28.3248 22.9766 28.4473 22.8337 28.4473H20.0159C19.873 28.4473 19.7505 28.3248 19.7505 28.1819L19.9751 21.3008L19.7913 16.4616H17.077H16.4247V14.1543H17.077ZM15.4966 14.1543H14.8095H5.01C4.86707 14.1543 4.74455 14.2768 4.74455 14.4197V16.1961C4.74455 16.3391 4.86707 16.4616 5.01 16.4616H8.82827L9.01204 21.3008L8.78744 28.1819C8.78744 28.3248 8.90995 28.4473 9.05288 28.4473H11.8706C12.0136 28.4473 12.1361 28.3248 12.1361 28.1819L11.9115 21.3008L12.0953 16.4616H14.8095H15.4966V14.1543ZM26.8207 18.1972C26.8207 17.9046 26.8456 17.624 26.8948 17.3563C26.9718 16.9369 27.1083 16.5491 27.3017 16.1961L27.3036 16.1927C27.501 15.8335 27.7574 15.5105 28.0701 15.2273C29.0456 14.344 30.5691 13.848 32.5583 13.848C35.8662 13.848 38.1735 15.114 38.6227 18.1155C38.6431 18.2584 38.541 18.3809 38.3981 18.3809H35.6824C35.519 18.3809 35.3965 18.2788 35.3761 18.1155C35.1719 16.87 34.1306 16.1961 32.4358 16.1961C30.9657 16.1961 29.9039 16.7066 29.9039 17.8909C29.9039 19.1781 31.5452 19.4784 33.4388 19.8249C36.0207 20.2974 39.0719 20.8557 39.0719 24.1186C39.0719 27.1405 36.7442 28.774 33.0075 28.774C29.2914 28.774 26.7186 27.2222 26.5349 23.894C26.5349 23.751 26.6574 23.6285 26.8003 23.6285H29.516C29.6589 23.6285 29.7814 23.7306 29.8018 23.894C30.0264 25.4458 30.7615 26.4463 33.0688 26.4463C34.9269 26.4463 35.9478 25.895 35.9478 24.5473C35.9478 23.1606 34.2615 22.8415 32.3385 22.4777C29.7878 21.995 26.8207 21.4336 26.8207 18.1972ZM35.3368 19.2615C34.8891 19.1354 34.5319 18.7664 34.4584 18.255C34.3954 17.8851 34.2262 17.6409 33.9584 17.4665C33.6606 17.2725 33.1728 17.1243 32.4358 17.1243C31.784 17.1243 31.3468 17.2414 31.104 17.3905C30.919 17.504 30.832 17.634 30.832 17.8909C30.832 18.0002 30.8583 18.0533 30.9321 18.1224C31.0395 18.223 31.2501 18.3458 31.6281 18.471C32.1607 18.6474 32.79 18.7622 33.5248 18.8964L33.5249 18.8964L33.5249 18.8964C33.8826 18.9617 34.2654 19.0316 34.6742 19.1154C34.8905 19.1597 35.1123 19.2078 35.3368 19.2615ZM30.7212 23.767C30.8195 24.4407 31.0063 24.8235 31.2705 25.058C31.5349 25.2927 32.035 25.5182 33.0688 25.5182C33.9395 25.5182 34.4464 25.3828 34.7114 25.2163C34.8963 25.1001 35.0197 24.9419 35.0197 24.5473C35.0197 24.3949 34.9782 24.3163 34.8987 24.2367C34.79 24.1277 34.582 23.9983 34.2118 23.8672C33.6675 23.6744 33.0131 23.5506 32.2442 23.4052L32.2442 23.4052L32.2441 23.4052L32.2439 23.4051C31.9154 23.343 31.5659 23.2769 31.1952 23.1998C30.9082 23.14 30.6109 23.0738 30.3106 22.9967C30.5299 23.1882 30.6798 23.4587 30.7212 23.767Z" fill="url(#paint0_linear_2202_29)"/>
</g>
<defs>
<linearGradient id="paint0_linear_2202_29" x1="21.9082" y1="12.9199" x2="21.9082" y2="29.7021" gradientUnits="userSpaceOnUse">
<stop stop-color="#FF4D4D"/>
<stop offset="1" stop-color="#81ABFF"/>
</linearGradient>
<clipPath id="clip0_2202_29">
<rect width="44" height="44" fill="white"/>
</clipPath>
</defs>
</svg>
