<svg width="18" height="18" viewBox="0 0 18 18" fill="none" xmlns="http://www.w3.org/2000/svg">
<g clip-path="url(#clip0_2201_5)">
<path fill-rule="evenodd" clip-rule="evenodd" d="M10.2377 9.93139V9.90381C10.2377 9.45972 10.498 9.07447 10.8737 8.89276C10.5565 8.47016 10.3693 7.93413 10.3693 7.28121C10.3693 7.00392 10.4038 6.73611 10.4723 6.48221H11.348C11.4138 6.48221 11.4702 6.42581 11.4702 6.36001V5.54221C11.4702 5.47641 11.4138 5.42001 11.348 5.42001H11.0319C11.1543 5.27772 11.2933 5.14589 11.4488 5.02609C12.1301 4.50138 13.0322 4.27901 14.0107 4.27901C14.883 4.27901 15.7473 4.44338 16.4515 4.9089C17.1915 5.398 17.6502 6.15103 17.7915 7.0956L17.7925 7.10218C17.8532 7.52698 17.6608 7.94567 17.3181 8.17847C17.7466 8.6288 18.0093 9.23646 18.0093 10.0072C18.0093 10.9911 17.6137 11.8346 16.8582 12.4007C16.1424 12.9372 15.2047 13.1504 14.2175 13.1504C13.2412 13.1504 12.2872 12.9492 11.5383 12.4167C10.7501 11.8562 10.2969 11.0039 10.2393 9.95894L10.2377 9.93139ZM15.7863 8.36581C15.6772 8.32429 15.5643 8.28756 15.4489 8.2545C15.202 8.1837 14.9443 8.12971 14.6906 8.08147C14.5983 8.06392 14.5066 8.04714 14.4161 8.03058C13.5443 7.87106 12.7887 7.73281 12.7887 7.14021C12.7887 6.59501 13.2775 6.36001 13.9543 6.36001C14.7075 6.36001 15.1803 6.64906 15.2968 7.1849C15.3009 7.20415 15.3047 7.22372 15.3079 7.24361C15.3173 7.31881 15.3737 7.36581 15.4489 7.36581H16.6991C16.7649 7.36581 16.8119 7.30941 16.8025 7.24361C16.779 7.08619 16.7443 6.93914 16.6991 6.80214C16.6493 6.65094 16.5866 6.51198 16.5119 6.38484C16.5081 6.37846 16.5044 6.37212 16.5006 6.36581C16.0454 5.61038 15.159 5.27901 14.0107 5.27901C12.3281 5.27901 11.3693 6.04981 11.3693 7.28121C11.3693 8.06255 11.745 8.50523 12.2716 8.78161C12.3788 8.83787 12.4923 8.88724 12.6101 8.93118C12.8773 9.03078 13.1669 9.10244 13.4568 9.1631C13.6087 9.19488 13.7606 9.22363 13.9095 9.25181C14.7948 9.41932 15.5711 9.56621 15.5711 10.2046C15.5711 10.825 15.1011 11.0788 14.2457 11.0788C13.2459 11.0788 12.8874 10.6707 12.7625 10.027C12.7547 9.98684 12.7478 9.94576 12.7417 9.90381C12.7323 9.82861 12.6759 9.78161 12.6101 9.78161H11.3599C11.2941 9.78161 11.2377 9.83801 11.2377 9.90381C11.2512 10.1483 11.2927 10.372 11.3599 10.5753C11.3831 10.6453 11.4093 10.713 11.4384 10.7782C11.4389 10.7793 11.4395 10.7805 11.44 10.7816C11.8574 11.7108 12.8755 12.1504 14.2175 12.1504C15.9377 12.1504 17.0093 11.3984 17.0093 10.0072C17.0093 9.08064 16.4749 8.62783 15.7863 8.36581Z" fill="black"/>
<path fill-rule="evenodd" clip-rule="evenodd" d="M7.06743 11.8615L7.17021 8.71268L7.12348 7.48221H6.32843C5.75162 7.48221 5.27408 7.04318 5.21286 6.48221H6.25404C6.26691 6.48221 6.27943 6.48005 6.29123 6.47609C6.30304 6.48005 6.31555 6.48221 6.32843 6.48221H8.08623L8.17083 8.71001L8.06743 11.8778C8.06743 11.9436 8.12383 12 8.18963 12H9.48683C9.55263 12 9.60903 11.9436 9.60903 11.8778L9.50563 8.71001L9.59023 6.48221H11.348C11.4138 6.48221 11.4702 6.42581 11.4702 6.36001V5.54221C11.4702 5.47641 11.4138 5.42001 11.348 5.42001H6.32843C6.31555 5.42001 6.30304 5.42217 6.29123 5.42614C6.27943 5.42217 6.26691 5.42001 6.25404 5.42001H5.21286C5.27408 4.85904 5.75162 4.42001 6.32843 4.42001H11.348C11.9661 4.42001 12.4702 4.92413 12.4702 5.54221V5.57142C12.0717 5.75617 11.7751 6.02364 11.5908 6.36001C11.4449 6.62622 11.3693 6.93557 11.3693 7.28121C11.3693 7.35072 11.3723 7.41755 11.3781 7.48182C11.3681 7.48208 11.3581 7.48221 11.348 7.48221H10.553L10.5062 8.71268L10.609 11.8615V11.8778C10.609 12.4959 10.1049 13 9.48683 13H8.18963C7.57155 13 7.06743 12.4959 7.06743 11.8778V11.8615Z" fill="black"/>
<path fill-rule="evenodd" clip-rule="evenodd" d="M1.97344 11.8615L2.07622 8.71268L2.0295 7.48221H1.23444C0.616356 7.48221 0.112244 6.9781 0.112244 6.36001V5.54221C0.112244 4.92413 0.616356 4.42001 1.23444 4.42001H6.25404C6.83085 4.42001 7.3084 4.85904 7.36961 5.42001H6.32844C6.31556 5.42001 6.30304 5.42217 6.29124 5.42614C6.27944 5.42217 6.26692 5.42001 6.25404 5.42001H1.23444C1.16864 5.42001 1.11224 5.47641 1.11224 5.54221V6.36001C1.11224 6.42581 1.16864 6.48221 1.23444 6.48221H2.99224L3.07684 8.71001L2.97344 11.8778C2.97344 11.9436 3.02984 12 3.09564 12H4.39284C4.45864 12 4.51504 11.9436 4.51504 11.8778L4.41164 8.71001L4.49624 6.48221H6.25404C6.26692 6.48221 6.27944 6.48005 6.29124 6.47609C6.30304 6.48005 6.31556 6.48221 6.32844 6.48221H7.36961C7.3084 7.04319 6.83085 7.48221 6.25404 7.48221H5.45899L5.41226 8.71267L5.51504 11.8615V11.8778C5.51504 12.4959 5.01093 13 4.39284 13H3.09564C2.47756 13 1.97344 12.4959 1.97344 11.8778V11.8615Z" fill="black"/>
<path fill-rule="evenodd" clip-rule="evenodd" d="M6 7L6 5L7 5L7 7L6 7Z" fill="black"/>
</g>
<defs>
<clipPath id="clip0_2201_5">
<rect width="18" height="18" fill="white"/>
</clipPath>
</defs>
</svg>
