<svg width="44" height="44" viewBox="0 0 44 44" fill="none" xmlns="http://www.w3.org/2000/svg">
<g clip-path="url(#clip0_2202_29)">
<path d="M0 8C0 3.58172 3.58172 0 8 0H36C40.4183 0 44 3.58172 44 8V36C44 40.4183 40.4183 44 36 44H8C3.58172 44 0 40.4183 0 36V8Z" fill="black"/>
<path fill-rule="evenodd" clip-rule="evenodd" d="M25.8932 24.1216V24.094C25.8932 23.3877 26.4729 22.808 27.1792 22.808H29.9028C29.2861 22.589 28.6869 22.3079 28.1577 21.931C26.9768 21.09 26.2012 19.814 26.2012 17.956C26.2012 17.6581 26.2216 17.3677 26.2622 17.086H24.1101L23.95 21.3027L24.1913 28.6977V28.714C24.1913 29.4203 23.6116 30 22.9053 30H19.8693C19.1631 30 18.5833 29.4203 18.5833 28.714V28.6977L18.8247 21.3027L18.6646 17.086H15.5133C15.5026 17.086 15.4919 17.0859 15.4813 17.0856C15.4706 17.0859 15.46 17.086 15.4493 17.086H12.298L12.1379 21.3027L12.3793 28.6977V28.714C12.3793 29.4203 11.7995 30 11.0933 30H8.05725C7.35097 30 6.77125 29.4203 6.77125 28.714V28.6977L7.01263 21.3027L6.85251 17.086H3.70125C2.99497 17.086 2.41525 16.5063 2.41525 15.8V13.886C2.41525 13.1797 2.99497 12.6 3.70125 12.6H15.4493C15.46 12.6 15.4706 12.6001 15.4813 12.6004C15.492 12.6001 15.5026 12.6 15.5133 12.6H27.2613C27.8443 12.6 28.341 12.9949 28.4967 13.53C29.7543 12.6826 31.4319 12.27 33.3832 12.27C35.2761 12.27 37.0066 12.6297 38.3566 13.522C39.7423 14.4379 40.6262 15.8493 40.9062 17.72L40.9072 17.7266C41.011 18.4535 40.4672 19.154 39.6752 19.154H36.7492C36.6556 19.154 36.5635 19.1446 36.4741 19.1264C37.4966 19.3773 38.5622 19.7403 39.4373 20.3627C40.6207 21.2043 41.4012 22.4809 41.4012 24.336C41.4012 26.2523 40.6464 27.814 39.2436 28.8652C37.8805 29.8868 36.0072 30.352 33.8672 30.352C31.7443 30.352 29.8201 29.9114 28.3734 28.8827C26.8875 27.8261 26.0091 26.221 25.8947 24.1491L25.8932 24.1216ZM16.7029 13.6H27.2613C27.4153 13.6 27.5473 13.732 27.5473 13.886L27.5473 14.3402V15.8C27.5473 15.8096 27.5468 15.8192 27.5458 15.8286C27.5308 15.97 27.4057 16.086 27.2613 16.086H26.5031L23.1473 16.086L22.9493 21.3L23.1913 28.714C23.1913 28.868 23.0593 29 22.9053 29H19.8693C19.7153 29 19.5833 28.868 19.5833 28.714L19.8253 21.3L19.6273 16.086H16.7029H16V13.6H16.7029ZM15 13.6H14.2597H3.70125C3.54725 13.6 3.41525 13.732 3.41525 13.886V15.8C3.41525 15.954 3.54725 16.086 3.70125 16.086H7.81525L8.01325 21.3L7.77125 28.714C7.77125 28.868 7.90325 29 8.05725 29H11.0933C11.2473 29 11.3793 28.868 11.3793 28.714L11.1373 21.3L11.3353 16.086H14.2597H15V13.6ZM27.2012 17.956C27.2012 17.6408 27.228 17.3385 27.281 17.05C27.364 16.5981 27.511 16.1803 27.7194 15.8L27.7215 15.7963C27.9341 15.4092 28.2104 15.0612 28.5473 14.7561C29.5984 13.8044 31.2399 13.27 33.3832 13.27C36.9472 13.27 39.4332 14.634 39.9172 17.868C39.9392 18.022 39.8292 18.154 39.6752 18.154H36.7492C36.5732 18.154 36.4412 18.044 36.4192 17.868C36.1992 16.526 35.0772 15.8 33.2512 15.8C31.6672 15.8 30.5232 16.35 30.5232 17.626C30.5232 19.0129 32.2915 19.3365 34.3318 19.7098C37.1137 20.2189 40.4012 20.8204 40.4012 24.336C40.4012 27.592 37.8932 29.352 33.8672 29.352C29.8632 29.352 27.0912 27.68 26.8932 24.094C26.8932 23.94 27.0252 23.808 27.1792 23.808H30.1052C30.2592 23.808 30.3912 23.918 30.4132 24.094C30.6552 25.766 31.4472 26.844 33.9332 26.844C35.9352 26.844 37.0352 26.25 37.0352 24.798C37.0352 23.3039 35.2183 22.9601 33.1464 22.568C30.3981 22.048 27.2012 21.4431 27.2012 17.956ZM36.3769 19.1028C35.8944 18.9669 35.5097 18.5693 35.4304 18.0183C35.3625 17.6198 35.1802 17.3566 34.8917 17.1687C34.5708 16.9597 34.0452 16.8 33.2512 16.8C32.5488 16.8 32.0779 16.9263 31.8162 17.0868C31.6168 17.2092 31.5232 17.3493 31.5232 17.626C31.5232 17.7437 31.5514 17.801 31.631 17.8754C31.7467 17.9838 31.9736 18.1162 32.381 18.2511C32.9548 18.4411 33.6327 18.5648 34.4246 18.7094L34.4246 18.7094C34.81 18.7798 35.2224 18.8551 35.6629 18.9453C35.896 18.9931 36.135 19.0449 36.3769 19.1028ZM31.4038 23.9572C31.5097 24.6831 31.711 25.0955 31.9956 25.3482C32.2805 25.6011 32.8193 25.844 33.9332 25.844C34.8713 25.844 35.4175 25.6981 35.7029 25.5187C35.9022 25.3935 36.0352 25.2232 36.0352 24.798C36.0352 24.6338 35.9905 24.5491 35.9049 24.4633C35.7877 24.3459 35.5636 24.2064 35.1647 24.0652C34.5782 23.8574 33.8732 23.7241 33.0447 23.5674L33.0447 23.5674L33.0447 23.5674L33.0445 23.5673L33.0442 23.5673C32.6903 23.5003 32.3138 23.4291 31.9145 23.346C31.6052 23.2817 31.285 23.2103 30.9613 23.1272C31.1976 23.3335 31.3592 23.6251 31.4038 23.9572Z" fill="url(#paint0_linear_2202_29)"/>
</g>
<defs>
<linearGradient id="paint0_linear_2202_29" x1="21.9082" y1="12.27" x2="21.9082" y2="30.352" gradientUnits="userSpaceOnUse">
<stop stop-color="#FF4D4D"/>
<stop offset="1" stop-color="#81ABFF"/>
</linearGradient>
<clipPath id="clip0_2202_29">
<rect width="44" height="44" fill="white"/>
</clipPath>
</defs>
</svg>
